<svg xmlns="http://www.w3.org/2000/svg" xmlns:xlink="http://www.w3.org/1999/xlink" width="278pt" height="72pt" viewBox="0.00 0.00 277.95 72.40">
<g id="graph0" class="graph" transform="scale(1 1) rotate(0) translate(4 68.4)">
<polygon fill="white" stroke="none" points="-4,4 -4,-68.4 273.95,-68.4 273.95,4 -4,4"/>
<!-- table -->
<g id="node1" class="node">
<title>table</title>
<polygon fill="yellow" stroke="none" points="8,-4 8,-60.4 45.12,-60.4 45.12,-4 8,-4"/>
<polygon fill="none" stroke="black" points="8,-4 8,-60.4 45.12,-60.4 45.12,-4 8,-4"/>
<text text-anchor="start" x="11" y="-19.6" font-family="Times,serif" font-size="14.00">MBR</text>
<polygon fill="green" stroke="none" points="45.12,-4 45.12,-60.4 99.33,-60.4 99.33,-4 45.12,-4"/>
<polygon fill="none" stroke="black" points="45.12,-4 45.12,-60.4 99.33,-60.4 99.33,-4 45.12,-4"/>
<text text-anchor="start" x="48.12" y="-28" font-family="Times,serif" font-size="14.00">Primaria</text>
<text text-anchor="start" x="59.4" y="-11.2" font-family="Times,serif" font-size="14.00">20%</text>
<polygon fill="green" stroke="none" points="99.33,-4 99.33,-60.4 153.54,-60.4 153.54,-4 99.33,-4"/>
<polygon fill="none" stroke="black" points="99.33,-4 99.33,-60.4 153.54,-60.4 153.54,-4 99.33,-4"/>
<text text-anchor="start" x="102.33" y="-28" font-family="Times,serif" font-size="14.00">Primaria</text>
<text text-anchor="start" x="113.6" y="-11.2" font-family="Times,serif" font-size="14.00">20%</text>
<polygon fill="green" stroke="none" points="153.54,-4 153.54,-60.4 207.75,-60.4 207.75,-4 153.54,-4"/>
<polygon fill="none" stroke="black" points="153.54,-4 153.54,-60.4 207.75,-60.4 207.75,-4 153.54,-4"/>
<text text-anchor="start" x="156.54" y="-28" font-family="Times,serif" font-size="14.00">Primaria</text>
<text text-anchor="start" x="167.81" y="-11.2" font-family="Times,serif" font-size="14.00">20%</text>
<polygon fill="green" stroke="none" points="207.75,-4 207.75,-60.4 261.95,-60.4 261.95,-4 207.75,-4"/>
<polygon fill="none" stroke="black" points="207.75,-4 207.75,-60.4 261.95,-60.4 261.95,-4 207.75,-4"/>
<text text-anchor="start" x="210.75" y="-28" font-family="Times,serif" font-size="14.00">Primaria</text>
<text text-anchor="start" x="222.02" y="-11.2" font-family="Times,serif" font-size="14.00">20%</text>
</g>
</g>
</svg>