<svg xmlns="http://www.w3.org/2000/svg" xmlns:xlink="http://www.w3.org/1999/xlink" width="500pt" height="95pt" viewBox="0.00 0.00 500.35 95.20">
<g id="graph0" class="graph" transform="scale(1 1) rotate(0) translate(4 91.2)">
<polygon fill="white" stroke="none" points="-4,4 -4,-91.2 496.35,-91.2 496.35,4 -4,4"/>
<!-- table -->
<g id="node1" class="node">
<title>table</title>
<polygon fill="yellow" stroke="none" points="8,-4 8,-83.2 45.12,-83.2 45.12,-4 8,-4"/>
<polygon fill="none" stroke="black" points="8,-4 8,-83.2 45.12,-83.2 45.12,-4 8,-4"/>
<text text-anchor="start" x="11" y="-31" font-family="Times,serif" font-size="14.00">MBR</text>
<polygon fill="green" stroke="none" points="45.12,-60.4 45.12,-83.2 357.51,-83.2 357.51,-60.4 45.12,-60.4"/>
<polygon fill="none" stroke="black" points="45.12,-60.4 45.12,-83.2 357.51,-83.2 357.51,-60.4 45.12,-60.4"/>
<text text-anchor="start" x="172.94" y="-67.6" font-family="Times,serif" font-size="14.00">Extendida</text>
<polygon fill="green" stroke="none" points="357.51,-4 357.51,-83.2 411.72,-83.2 411.72,-4 357.51,-4"/>
<polygon fill="none" stroke="black" points="357.51,-4 357.51,-83.2 411.72,-83.2 411.72,-4 357.51,-4"/>
<text text-anchor="start" x="360.51" y="-39.4" font-family="Times,serif" font-size="14.00">Primaria</text>
<text text-anchor="start" x="371.78" y="-22.6" font-family="Times,serif" font-size="14.00">25%</text>
<polygon fill="green" stroke="none" points="411.72,-4 411.72,-83.2 448.04,-83.2 448.04,-4 411.72,-4"/>
<polygon fill="none" stroke="black" points="411.72,-4 411.72,-83.2 448.04,-83.2 448.04,-4 411.72,-4"/>
<text text-anchor="start" x="414.72" y="-31" font-family="Times,serif" font-size="14.00">Libre</text>
<polygon fill="green" stroke="none" points="448.04,-4 448.04,-83.2 484.35,-83.2 484.35,-4 448.04,-4"/>
<polygon fill="none" stroke="black" points="448.04,-4 448.04,-83.2 484.35,-83.2 484.35,-4 448.04,-4"/>
<text text-anchor="start" x="451.04" y="-31" font-family="Times,serif" font-size="14.00">Libre</text>
<polygon fill="green" stroke="none" points="45.12,-4 45.12,-60.4 78.35,-60.4 78.35,-4 45.12,-4"/>
<polygon fill="none" stroke="black" points="45.12,-4 45.12,-60.4 78.35,-60.4 78.35,-4 45.12,-4"/>
<text text-anchor="start" x="48.12" y="-19.6" font-family="Times,serif" font-size="14.00">EBR</text>
<polygon fill="green" stroke="none" points="78.35,-4 78.35,-60.4 123.22,-60.4 123.22,-4 78.35,-4"/>
<polygon fill="none" stroke="black" points="78.35,-4 78.35,-60.4 123.22,-60.4 123.22,-4 78.35,-4"/>
<text text-anchor="start" x="81.35" y="-28" font-family="Times,serif" font-size="14.00">Logica</text>
<text text-anchor="start" x="91.46" y="-11.2" font-family="Times,serif" font-size="14.00">5%</text>
<polygon fill="green" stroke="none" points="123.22,-4 123.22,-60.4 156.45,-60.4 156.45,-4 123.22,-4"/>
<polygon fill="none" stroke="black" points="123.22,-4 123.22,-60.4 156.45,-60.4 156.45,-4 123.22,-4"/>
<text text-anchor="start" x="126.22" y="-19.6" font-family="Times,serif" font-size="14.00">EBR</text>
<polygon fill="green" stroke="none" points="156.45,-4 156.45,-60.4 201.32,-60.4 201.32,-4 156.45,-4"/>
<polygon fill="none" stroke="black" points="156.45,-4 156.45,-60.4 201.32,-60.4 201.32,-4 156.45,-4"/>
<text text-anchor="start" x="159.45" y="-28" font-family="Times,serif" font-size="14.00">Logica</text>
<text text-anchor="start" x="169.55" y="-11.2" font-family="Times,serif" font-size="14.00">5%</text>
<polygon fill="green" stroke="none" points="201.32,-4 201.32,-60.4 234.54,-60.4 234.54,-4 201.32,-4"/>
<polygon fill="none" stroke="black" points="201.32,-4 201.32,-60.4 234.54,-60.4 234.54,-4 201.32,-4"/>
<text text-anchor="start" x="204.32" y="-19.6" font-family="Times,serif" font-size="14.00">EBR</text>
<polygon fill="green" stroke="none" points="234.54,-4 234.54,-60.4 279.41,-60.4 279.41,-4 234.54,-4"/>
<polygon fill="none" stroke="black" points="234.54,-4 234.54,-60.4 279.41,-60.4 279.41,-4 234.54,-4"/>
<text text-anchor="start" x="237.54" y="-28" font-family="Times,serif" font-size="14.00">Logica</text>
<text text-anchor="start" x="247.65" y="-11.2" font-family="Times,serif" font-size="14.00">5%</text>
<polygon fill="green" stroke="none" points="279.41,-4 279.41,-60.4 312.64,-60.4 312.64,-4 279.41,-4"/>
<polygon fill="none" stroke="black" points="279.41,-4 279.41,-60.4 312.64,-60.4 312.64,-4 279.41,-4"/>
<text text-anchor="start" x="282.41" y="-19.6" font-family="Times,serif" font-size="14.00">EBR</text>
<polygon fill="green" stroke="none" points="312.64,-4 312.64,-60.4 357.51,-60.4 357.51,-4 312.64,-4"/>
<polygon fill="none" stroke="black" points="312.64,-4 312.64,-60.4 357.51,-60.4 357.51,-4 312.64,-4"/>
<text text-anchor="start" x="315.64" y="-28" font-family="Times,serif" font-size="14.00">Logica</text>
<text text-anchor="start" x="325.75" y="-11.2" font-family="Times,serif" font-size="14.00">5%</text>
</g>
</g>
</svg>